<svg xmlns="http://www.w3.org/2000/svg" width="24" height="24" viewBox="0 0 24 24" fill="#ffffff" role="img" aria-label="Hashi">
	<path d="M21.7347 23.9456C15.3319 24.0597 8.59145 23.9623 2.16339 23.9504L2.16534 21.842H21.7493L21.7347 23.9456Z" />
	<path d="M23.9212 2.32251L23.9163 14.7698C23.9163 17.0859 23.9537 19.5272 23.8958 21.8352L21.7503 21.842L21.7484 2.31567C22.4726 2.30641 23.197 2.30843 23.9212 2.32251Z" />
	<path d="M0.285461 2.29516C0.868174 2.27062 1.58902 2.29305 2.18195 2.29516C2.14235 6.87179 2.1318 11.4489 2.14972 16.0256L2.14777 19.8225C2.14746 20.3095 2.18255 21.3429 2.11163 21.7854L1.9798 21.8352L0.0266719 21.8274C-0.0101276 20.1931 -0.0218935 2.56343 0.0784297 2.33423L0.285461 2.29516Z" />
	<path d="M9.49738 6.92016L9.50421 10.9827C11.1207 10.9912 12.7374 10.9911 14.3538 10.9827C14.3484 9.62949 14.3522 8.27619 14.3655 6.92309C15.076 6.8944 15.8714 6.91782 16.5882 6.92407L16.5745 17.1399C16.2398 17.1821 14.7869 17.1539 14.3734 17.1536C14.3199 15.9114 14.3521 14.4546 14.3489 13.1965L9.50812 13.1926C9.47658 14.4803 9.4943 15.8673 9.48956 17.1624L7.29913 17.1516C7.23409 13.8713 7.27617 10.2087 7.30011 6.92016C7.99963 6.89547 8.7901 6.91662 9.49738 6.92016Z" />
	<path d="M2.19073 0.0412576C6.7287 -0.0777146 11.3679 0.106105 15.9163 0.031492C17.7948 0.000619508 19.8898 -0.0255978 21.7464 0.0705545C21.7488 0.431717 21.8076 2.07576 21.6536 2.302C15.2685 2.14545 8.62223 2.40246 2.17511 2.26587C2.16013 1.48731 2.15874 0.819145 2.19073 0.0412576Z" />
</svg>
